<?xml version="1.0" encoding="UTF-8"?><svg id="Layer_2" xmlns="http://www.w3.org/2000/svg" viewBox="0 0 1150.11 1261.9"><defs><style>.cls-1{fill:#fb8500;fill-rule:evenodd;}</style></defs><g id="Layer_1-2"><path class="cls-1" d="m473.66,375.56c-2.93-54.03-18.29-108.2-47.19-158.27-15.33-26.55-33.56-50.37-54.06-71.3-24.19,10.09-47.68,22-70.24,35.67,23.38,20.13,43.82,44.46,60.12,72.69,15.14,26.22,25.58,53.86,31.59,81.95,7.16,5.13,14.65,9.96,22.44,14.46,18.5,10.68,37.74,18.92,57.35,24.81"/><path class="cls-1" d="m464.92,475.59c-23.9-5.76-47.49-13.98-70.44-24.8-10.25,50.76-34.38,98.54-70.77,137.24,21.78,12.35,42.19,26.84,60.92,43.21,39.77-44.84,67.03-98.57,80.3-155.65"/><path class="cls-1" d="m308.03,696.13c-23.28-18.16-49.61-32.58-78.11-42.35-58.01,25.1-120.9,29.17-179.14,14.75,1.91,26.26,5.78,52.31,11.55,77.91,77.85,12.48,160.33-.73,233.93-43.22,3.98-2.3,7.9-4.66,11.76-7.09"/><path class="cls-1" d="m404.58,846.45c-45.33,29.56-84.57,69.94-113.47,120-15.33,26.56-26.85,54.27-34.73,82.5,17.6,13.38,36.24,25.8,55.89,37.15,3.37,1.94,6.76,3.85,10.15,5.71,5.74-30.28,16.59-60.11,32.87-88.3,15.14-26.22,33.85-49.09,55.18-68.33.86-8.77,1.3-17.66,1.3-26.65,0-21.36-2.49-42.15-7.19-62.07"/><path class="cls-1" d="m495.57,804.01c6.97,23.57,11.64,48.13,13.75,73.41,49.08-16.5,102.53-19.49,154.24-7.33-.21-25.04,2.15-49.96,6.96-74.36-58.72-12.03-118.88-8.77-174.95,8.29"/><path class="cls-1" d="m765.02,829.61c-4.09,29.24-3.41,59.25,2.38,88.82,50.76,37.71,85.74,90.16,102.37,147.83,21.63-14.62,42.28-30.93,61.73-48.89-28.11-73.72-80.8-138.6-154.45-181.12-3.98-2.3-7.99-4.51-12.02-6.64"/><path class="cls-1" d="m846.92,670.84c48.26,24.47,102.85,38.26,160.66,38.26,30.69,0,60.48-3.89,88.89-11.2,3.35-26.2,4.7-52.48,4.09-78.62-29.11,10.18-60.4,15.71-92.99,15.71-30.27,0-59.43-4.78-86.76-13.62-8.03,3.64-15.95,7.7-23.74,12.2-18.5,10.68-35.25,23.23-50.16,37.27"/><path class="cls-1" d="m764.67,613.25c16.93-17.82,35.85-34.14,56.69-48.61-38.84-34.25-68.15-79.05-83.47-129.9-21.58,12.69-44.34,23.11-67.88,31.15,18.94,56.86,51.85,107.34,94.66,147.36"/><path class="cls-1" d="m652.12,367.11c27.36-11.08,53.02-26.68,75.73-46.47,7.27-62.78,35.18-119.26,76.77-162.5-23.93-11.65-48.39-21.32-73.15-29.06-49.78,61.2-79.61,139.26-79.61,224.3,0,4.6.08,9.18.26,13.73"/><path class="cls-1" d="m396.98,353.4c-58.5-38.12-98.48-94.83-116.63-157.76-21.63,14.62-42.28,30.93-61.73,48.89,28.11,73.72,80.8,138.6,154.45,181.12,7.79,4.5,15.68,8.66,23.66,12.51,23.03,11.11,46.75,19.51,70.78,25.32,66.62,16.1,135.63,12.23,198.8-9.4,23.68-8.11,46.55-18.72,68.16-31.71,50-30.05,93.29-72.84,124.52-126.93,15.33-26.56,26.85-54.27,34.73-82.5-17.6-13.38-36.24-25.8-55.89-37.15-3.37-1.94-6.76-3.85-10.15-5.71-5.74,30.27-16.59,60.11-32.87,88.3-18.2,31.52-41.58,58.2-68.44,79.57-22.41,17.83-47.25,31.97-73.53,42.16-56.19,21.77-118.97,25.45-178.71,8.47-21.9-6.22-43.39-15.22-64.01-27.12-4.48-2.59-8.86-5.28-13.14-8.07"/><path class="cls-1" d="m1087.78,515.46c-77.85-12.48-160.33.73-233.93,43.22-7.79,4.5-15.35,9.25-22.66,14.23-21.14,14.39-40.28,30.73-57.32,48.64-47.25,49.65-78.41,111.34-91.26,176.87-4.82,24.57-7.06,49.68-6.62,74.89,1.02,58.32,16.43,117.21,47.66,171.3,15.32,26.55,33.56,50.37,54.06,71.3,24.19-10.09,47.68-22,70.24-35.67-23.38-20.12-43.82-44.46-60.12-72.69-18.2-31.53-29.62-65.11-34.69-99.05-4.24-28.33-4.07-56.91.26-84.76,9.24-59.55,37.44-115.75,82.02-159.01,16.34-15.85,34.88-29.97,55.49-41.87,4.48-2.58,9-5.03,13.56-7.35,62.24-31.59,131.33-37.87,194.87-22.14-1.9-26.26-5.77-52.31-11.55-77.91"/><path class="cls-1" d="m418.64,1132.82c49.77-61.2,79.61-139.26,79.61-224.3,0-9-.33-17.92-.99-26.75-1.9-25.49-6.48-50.24-13.47-73.96-19.37-65.75-57.22-123.57-107.54-167.47-18.87-16.46-39.49-30.96-61.55-43.18-51.02-28.28-109.72-44.37-172.18-44.37-30.7,0-60.48,3.89-88.89,11.2-3.36,26.2-4.7,52.48-4.09,78.62,29.11-10.18,60.4-15.71,92.99-15.71,36.4,0,71.19,6.91,103.13,19.48,26.65,10.49,51.32,24.93,73.28,42.6,46.94,37.77,81.52,90.3,96.69,150.53,5.56,22.08,8.51,45.19,8.51,69,0,5.17-.14,10.31-.41,15.41-3.76,69.69-32.86,132.64-78.24,179.81,23.93,11.66,48.39,21.33,73.15,29.07"/><path class="cls-1" d="m604.17,15.09c53.81,31.06,72.24,99.86,41.17,153.66-31.06,53.81-99.86,72.24-153.66,41.17-53.8-31.06-72.24-99.86-41.17-153.66s99.86-72.24,153.66-41.17"/><path class="cls-1" d="m1122.96,348.24c0,62.13-50.36,112.49-112.49,112.49s-112.49-50.36-112.49-112.49,50.36-112.49,112.49-112.49,112.49,50.36,112.49,112.49"/><path class="cls-1" d="m1093.85,964.1c-53.81,31.06-122.6,12.63-153.67-41.17-31.06-53.8-12.63-122.6,41.18-153.66,53.8-31.06,122.6-12.63,153.66,41.17,31.06,53.8,12.63,122.6-41.17,153.66"/><path class="cls-1" d="m545.94,1246.81c-53.81-31.06-72.23-99.86-41.17-153.66,31.06-53.81,99.86-72.24,153.66-41.17,53.8,31.06,72.24,99.86,41.17,153.66-31.06,53.8-99.86,72.24-153.66,41.17"/><path class="cls-1" d="m27.15,913.66c0-62.13,50.36-112.49,112.49-112.49s112.49,50.36,112.49,112.49-50.36,112.49-112.49,112.49-112.49-50.36-112.49-112.49"/><path class="cls-1" d="m56.26,297.8c53.81-31.06,122.6-12.63,153.67,41.17,31.06,53.8,12.63,122.6-41.18,153.66-53.8,31.06-122.6,12.63-153.66-41.17-31.06-53.8-12.63-122.6,41.17-153.66"/></g></svg>